<?xml version="1.0" encoding="UTF-8"?>
<!DOCTYPE svg PUBLIC "-//W3C//DTD SVG 1.1//EN" "http://www.w3.org/Graphics/SVG/1.1/DTD/svg11.dtd">
<!-- Creator: CorelDRAW 2017 -->
<svg xmlns="http://www.w3.org/2000/svg" 
     xml:space="preserve" width="593px" height="979px" version="1.1" 
     style="shape-rendering:geometricPrecision; text-rendering:geometricPrecision; image-rendering:optimizeQuality; fill-rule:evenodd; clip-rule:evenodd" 
     viewBox="0 0 1508.42 2490.55"
     xmlns:xlink="http://www.w3.org/1999/xlink">
 <defs>
  <style type="text/css">
   <![CDATA[
    .fil0 {fill:black;fill-rule:nonzero}
   ]]>
  </style>
 </defs>
 <g id="Capa_x0020_1">
  <metadata id="CorelCorpID_0Corel-Layer"/>
  <path class="fil0" d="M723.71 0l60.99 0c338.91,0 575.33,155.94 709.26,467.8 10.06,55.34 14.46,100.61 14.46,136.45 -27.04,347.08 -152.79,558.34 -377.26,633.79 -67.91,-10.05 -123.24,-15.08 -166,-15.08l-89.91 0 -15.09 75.45c0,160.96 15.72,296.78 45.9,407.44l-60.36 45.9c-69.17,-30.81 -124.5,-45.9 -166,-45.9l-60.99 0c-35.21,0 -76.08,20.12 -121.35,60.36l-29.55 0c-14.47,0 -30.19,-15.09 -45.9,-45.9l0 -285.46c0,-237.05 70.42,-392.98 211.89,-467.8 191.15,-42.76 287.35,-88.66 287.35,-136.45l0 -75.45c0,-28.29 -50.3,-48.41 -150.91,-60.99 -83.62,0 -239.56,71.05 -468.43,211.89l-60.36 0c-22.01,0 -67.91,-90.54 -136.44,-272.25 -69.8,-17.61 -105.01,-37.1 -105.01,-59.11 52.82,-208.75 98.09,-320.04 136.44,-333.24 93.06,-92.43 289.24,-172.91 587.27,-241.45zm-557.71 377.26c30.18,10.06 76.08,90.54 135.81,241.45l15.09 0c72.31,-120.1 172.91,-180.46 301.81,-180.46l151.53 0c115.07,0 210.01,95.58 285.46,287.35l0 15.09c0,148.39 -135.81,254.02 -407.44,316.27 -89.28,67.91 -134.55,182.97 -134.55,346.45l0 226.99 105 -15.09 29.55 0 150.91 15.09 -14.47 -29.55 0 -348.34c0,-55.33 25.16,-94.95 75.46,-119.47l105 0c42.76,0 98.09,4.4 166,14.46 191.14,-105.63 287.34,-286.72 287.34,-543.25 0,-177.95 -115.69,-334.51 -346.45,-467.81 -66.02,-29.55 -146.5,-44.64 -241.45,-44.64l-121.35 0c-362.17,94.94 -543.25,189.89 -543.25,285.46zm-44.65 90.54l-16.34 75.46c18.23,0 43.38,10.68 75.45,31.43l0 -15.09c-22.01,-60.99 -41.5,-91.8 -59.11,-91.8zm407.45 196.81l44.01 0 0 -135.82c-19.49,0 -34.58,45.27 -44.01,135.82zm119.46 -135.82c10.06,14.47 15.09,44.65 15.09,89.92l16.35 0c0,-45.27 5.03,-75.45 14.46,-89.92l-45.9 0zm136.44 0l-14.46 30.81 0 44.65c72.31,9.43 111.93,14.46 119.47,14.46l0 -14.46c0,-15.09 -35.21,-40.24 -105.01,-75.46zm-392.35 121.36l45.9 29.55 15.09 0 0 -90.54c-16.34,0 -36.46,20.75 -60.99,60.99zm-180.45 -16.35l0 16.35 59.1 165.99 30.81 0 0 -31.44c-50.3,-74.82 -75.45,-125.12 -75.45,-150.9l-14.46 0zm210.01 91.8l31.43 0 0 -31.44c-21.37,2.51 -31.43,13.2 -31.43,31.44zm165.99 1070.16l45.9 0c201.21,0 316.9,80.49 346.45,241.45l0 90.54c-92.43,241.45 -177.94,362.8 -256.54,362.8l-60.36 0c-160.96,0 -271.63,-100.6 -331.99,-302.43l0 -60.37c20.75,-221.32 106.26,-331.99 256.54,-331.99zm-90.54 182.35l0 59.1c0,100.61 70.42,181.09 211.89,241.45 120.1,-27.04 180.46,-82.37 180.46,-166l0 -59.1c-24.52,-111.29 -89.91,-167.25 -195.55,-167.25l-60.36 0c-55.33,0 -100.6,30.81 -136.44,91.8zm-75.45 149.64l0 45.9c0,35.22 35.21,95.58 106.89,180.46l14.46 -29.55 0 -14.46c-69.8,-93.69 -105.01,-154.05 -105.01,-182.35l-16.34 0zm196.8 226.36l0 45.9 75.45 15.09c0,-10.06 5.03,-24.52 15.09,-44.64l-29.55 -16.35 -60.99 0z"/>
 </g>
</svg>
