<?xml version="1.0" encoding="UTF-8"?>
<!DOCTYPE svg PUBLIC "-//W3C//DTD SVG 1.1//EN" "http://www.w3.org/Graphics/SVG/1.1/DTD/svg11.dtd">
<!-- Creator: CorelDRAW 2017 -->
<svg xmlns="http://www.w3.org/2000/svg" xml:space="preserve" width="1062px" height="1062px" version="1.1" style="shape-rendering:geometricPrecision; text-rendering:geometricPrecision; image-rendering:optimizeQuality; fill-rule:evenodd; clip-rule:evenodd"
viewBox="0 0 1062 1062"
 xmlns:xlink="http://www.w3.org/1999/xlink">
 <defs>
  <style type="text/css">
   <![CDATA[
    .str0 {stroke:black;stroke-width:11.81}
    .fil0 {fill:white}
    .fil1 {fill:black;fill-rule:nonzero}
   ]]>
  </style>
 </defs>
 <g id="Capa_x0020_1">
  <metadata id="CorelCorpID_0Corel-Layer"/>
  <rect class="fil0 str0" x="5.91" y="5.91" width="1050.19" height="1050.19" rx="300.05" ry="300.05"/>
  <path class="fil1" d="M805.73 484.82c-2.49,0 -4.54,0.72 -5.9,2.01 -3.18,3.15 -15.22,12.33 -35.9,27.8 -15.22,11.18 -24.76,21.36 -28.63,30.67 -5.9,5.59 -11.36,11.47 -16.58,17.63 1.14,-11.75 1.36,-22.93 0.45,-33.68 7.73,-7.74 37.04,-31.1 87.93,-70.08 0.45,8.17 0,16.63 -1.37,25.65zm-30.44 83.56c-48.85,40.55 -73.16,60.76 -72.7,60.47 -3.41,1.87 -4.09,4.16 -2.05,6.74 2.27,2.44 5.23,2.87 8.64,1.15 9.09,-4.16 17.72,-9.61 26.12,-16.34 -14.31,13.18 -32.71,27.8 -55.2,44.14 17.26,-25.23 28.85,-51.59 35.21,-78.97 0,-0.57 0,-1.29 0,-2.15 0.45,-1.14 0.68,-1.86 0.68,-2.43 2.5,0 4.32,-0.72 5.23,-2.15 5.91,-7.6 11.36,-14.19 16.58,-19.78 5,0.29 7.73,-1 8.18,-4.15 0.46,-2.01 0.91,-3.87 1.82,-5.88 3.64,-3.58 7.27,-6.88 10.68,-9.6 2.27,-2.01 2.27,-4.16 0,-6.31 4.54,-4.73 11.59,-10.6 21.35,-17.2 13.41,-9.6 21.13,-15.19 23.41,-16.91 -4.55,20.5 -13.86,43.57 -27.95,69.37zm-212.43 172.11c-33.85,20.78 -74.52,37.69 -122.45,50.74 -80.43,21.64 -137.23,26.65 -170.4,15.19 -5.45,-2.01 -10.22,-1.72 -14.77,0.86 -0.45,-1.44 -0.23,-8.32 0.68,-20.64 0.91,-10.61 3.87,-28.23 8.64,-52.88 6.81,-32.68 9.08,-72.66 7.49,-119.67 -0.9,-21.21 -0.45,-49.01 1.14,-83.12 2.27,-43.71 3.41,-71.37 3.41,-83.12 1.36,-79.54 3.18,-122.1 5.45,-127.69 14.54,0.86 38.85,-0.43 72.48,-3.73 31.57,-3.01 56.11,-3.72 73.83,-2.15 58.62,6.17 111.78,23.79 159.72,53.03 79.07,48.01 112.92,115.94 102.01,203.5 -8.18,65.78 -50.43,122.39 -127.23,169.68zm-213.11 -462.32c5.46,-2.15 13.41,-5.59 24.09,-10.03 11.13,-4.16 19.31,-7.45 24.54,-9.6 -15.91,11.75 -29.77,25.22 -41.13,40.7 -25.9,2.29 -44.98,3.29 -57.25,3.29 7.5,-5.59 24.08,-13.61 49.75,-24.36zm82.7 -29.38c11.82,2.29 25.45,4.01 40.44,5.02 -19.53,22.21 -34.53,36.4 -45.21,42.85 -14.54,-0.86 -32.49,-0.43 -53.84,1.29 16.81,-20.35 36.35,-36.83 58.61,-49.16zm101.79 7.6c-7.05,5.59 -15.23,13.18 -24.54,22.64 -12.49,12.32 -20.45,20.06 -24.08,23.07 -1.37,1.44 -1.59,2.73 -0.68,3.87 -9.77,-2.29 -19.09,-4.3 -27.95,-5.87 -3.63,-0.58 -7.5,-1.15 -12.04,-1.72 7.27,-5.02 21.36,-19.64 42.71,-43.71 6.14,0.28 13.86,0.57 23.18,0.86 12.49,0.28 20.22,0.57 23.4,0.86zm64.52 5.87c-33.17,20.78 -52.94,40.56 -59.3,59.62 -14.54,-5.3 -29.31,-9.75 -44.53,-13.47 1.37,-0.57 2.28,-1 2.73,-1.58 38.62,-35.54 56.34,-52.31 53.16,-50.01 18.18,1.14 34.31,3.01 47.94,5.44zm12.04 5.02c0.91,-0.58 1.59,-1.15 2.05,-1.58 10.22,2.72 19.76,6.02 28.62,9.6 -1.36,0.58 -2.5,1.29 -3.41,2.15 -5.67,6.31 -15.22,15.77 -28.62,28.09 -13.41,12.33 -22.95,21.64 -28.63,28.09 -2.27,2.58 -1.36,4.44 2.73,5.88 3.86,1.72 7.04,1.29 9.31,-1.29 5.68,-6.45 15.23,-15.77 28.63,-28.09 13.18,-12.33 22.72,-21.64 28.63,-28.09 0.45,-0.86 0.68,-1.58 0.68,-2.15 10.68,4.73 21.13,10.32 31.8,16.77 -2.04,0 -3.86,0.57 -5.22,1.72 -40.9,33.53 -62.71,53.17 -65.21,58.75 -17.72,-11.75 -37.94,-21.92 -60.66,-30.66 4.55,-18.2 24.31,-37.84 59.3,-59.19zm77.93 33.25c22.49,14.47 42.94,31.1 61.12,49.87 -2.96,-0.29 -5.46,0.43 -7.27,2.15 -36.36,32.67 -56.58,56.61 -60.67,71.8 -5.22,-7.6 -10.9,-14.76 -17.26,-21.36 2.72,-0.28 4.54,-1.43 5.45,-3.43 10.22,-32.68 27.04,-56.04 50.44,-69.65 3.18,-2.01 3.18,-4.16 0,-6.31 -3.41,-2.29 -6.82,-2.44 -10,-0.43 -24.76,14.76 -42.49,38.69 -53.16,71.8 -10.68,-11.18 -22.27,-21.35 -34.54,-30.24 1.59,-6.45 23.18,-26.51 64.53,-60.05 1.36,-1.43 1.81,-2.86 1.36,-4.15zm66.57 55.74c14.99,16.63 27.26,33.25 36.58,50.02 6.58,12.61 11.13,25.94 13.17,39.84 -4.31,3.73 -19.31,14.91 -44.53,33.68 -18.17,13.61 -32.49,25.08 -42.48,34.39 -1.82,-12.89 -5,-25.36 -9.32,-37.4 8.41,-6.74 20.45,-17.2 36.58,-31.53 15.9,-13.9 28.4,-24.22 37.26,-30.95 2.5,-2.3 2.27,-4.59 -0.68,-6.74 -3.64,-2.29 -6.82,-2.29 -9.32,0 -8.4,7.02 -19.76,16.77 -34.07,29.38 -15.91,13.76 -27.27,23.36 -33.86,28.95 -3.63,-9.17 -7.95,-18.06 -13.4,-26.51 1.82,-0.72 2.72,-1.87 2.72,-3.3 0.46,-16.77 20.68,-43.28 60.67,-79.4 0.45,0 0.68,-0.14 0.68,-0.43zm65.88 51.31c-21.35,-51.31 -70.2,-97.31 -146.54,-138.15 -31.12,-16.77 -66.11,-26.94 -105.19,-30.24 -8.4,-0.86 -31.12,-1.72 -68.61,-2.58 -27.95,-0.57 -50.21,-2.58 -67.02,-6.31 -7.27,-1.29 -12.27,0 -15.45,4.3 -4.32,-2.58 -9.32,-2.72 -14.54,-0.43 6.13,-2.86 -17.95,6.74 -72.71,28.52 -29.99,12.33 -50.66,24.65 -61.79,36.98 -5,0.57 -8.18,2.43 -10,5.87 -6.13,12.33 -9.54,56.75 -9.99,133.43 0,14.9 -1.14,45.57 -3.41,92 -1.59,38.12 -2.05,68.79 -1.14,92.01 1.14,40.56 -1.82,80.97 -9.31,121.24 -9.32,47.01 -8.87,75.09 1.81,83.98 4.09,3.73 9.32,4.73 16.13,3.44 6.59,-1.15 10,-3.58 10,-7.17 29.99,8.17 79.75,5.59 149.04,-7.59 52.26,-10.32 99.74,-26.51 142.45,-48.73 30.67,-15.62 57.48,-33.82 80.43,-54.46 5.45,1.01 9.77,0.15 13.4,-2.58 80.2,-54.6 128.82,-96.16 145.63,-124.68 5.46,-9.31 10.46,-18.48 15.45,-27.8 2.28,-1.29 2.96,-3.01 2.05,-5.01 24.76,-52.89 27.95,-101.61 9.31,-146.04zm-304.21 177.99c-0.45,0 -0.91,0.15 -1.36,0.43 -8.86,4.45 -20.22,13.76 -33.86,27.66 -12.95,13.19 -24.53,21.93 -34.76,26.08 1.37,-7.59 2.5,-14.76 3.41,-21.49 20.9,-30.96 42.03,-50.88 63.84,-59.62 4.09,-1.58 4.77,-3.72 2.05,-6.16 -2.27,-2.58 -5.23,-3.15 -8.64,-1.72 -20.9,8.31 -39.3,23.07 -55.2,43.99 0.45,-8.31 0.68,-16.62 0.68,-24.64 1.59,1 3.86,1.57 6.59,1.57 2.72,-0.28 4.31,-1.43 5.22,-3.29 7.5,-19.35 29.31,-39.56 65.21,-60.48 3.18,-2.01 3.18,-3.87 0,-5.88 -3.41,-2.29 -6.82,-2.43 -10,-0.43 -35.9,20.93 -58.16,41.56 -67.02,61.77 0,-7.59 0,-14.9 0,-21.93 1.13,1.44 3.41,2.15 6.59,2.15 2.72,-0.28 4.31,-1.43 5.22,-3.29 6.36,-15.48 26.81,-32.96 62.03,-52.6 5.22,12.61 8.18,25.65 8.63,39.13 0.45,19.34 -5.91,38.83 -18.63,58.75zm-67.25 71.37c0.91,0.29 -0.91,0.43 -5.45,0.43l-0.68 0c0,-1.43 0.22,-3.44 0.68,-5.87 8.63,-2.58 16.58,-6.31 24.08,-11.33 -5.23,4.73 -11.59,10.32 -18.63,16.77zm1.36 -222.13c0,-0.57 -0.45,-1.43 -1.36,-2.44 -0.45,-1.14 -0.68,-2 -0.68,-2.58 10.22,1.15 19.76,3.3 28.63,6.74 -4.55,5.88 -14.09,13.76 -28.63,23.5 0,-5.59 -0.23,-10.32 -0.68,-14.33 5.68,-3.01 6.59,-6.59 2.72,-10.89zm49.76 15.62c-2.04,0 -3.86,0.57 -5.23,2.01 -13.4,13.47 -28.4,25.36 -45.21,35.68 -0.45,-7.02 -0.68,-12.04 -0.68,-15.05 22.49,-16.48 35.44,-26.94 38.62,-31.09 4.32,2.29 8.64,5.01 12.5,8.45zm6.81 6.31c5.68,6.02 10.91,13.32 15.23,21.78 -0.91,0.29 -1.82,0.72 -2.73,1.29 -37.71,20.64 -60.21,39.41 -67.7,56.18 0,-10.03 -0.46,-22.22 -1.37,-36.55 0.91,-0.28 1.82,-0.57 2.5,-0.71 19.54,-11.33 37.49,-25.08 53.39,-41.71 0,0 0.23,-0.14 0.68,-0.28zm53.85 51.59c-4.09,-26.08 -15.9,-48.15 -35.9,-66.35 -23.63,-21.07 -53.84,-31.25 -91.1,-30.67 -5.91,0 -9.77,1.72 -12.04,5.01 -1.82,3.44 -1.59,6.45 0.68,9.32 -1.82,1.43 -2.5,3.01 -2.05,5.01 1.82,128.7 0.23,202.65 -4.77,221.71 -0.68,3.58 0.91,6.59 5.46,8.74 -0.46,1.15 -0.69,2.58 -0.69,4.3 0,6.59 4.32,10.03 13.41,10.03l9.09 0c2.72,2.29 6.36,3.01 10.67,2.58 4.55,-0.57 8.41,-2.29 11.36,-5.16 70.66,-62.63 102.47,-117.51 95.88,-164.52z"/>
 </g>
</svg>
